<svg width="281" height="40" viewBox="0 0 281 40" fill="none" xmlns="http://www.w3.org/2000/svg">
<path d="M40.0392 26.5423L36.6587 21.1324C36.6587 21.1324 36.6466 21.1095 36.6385 21.1001L36.3721 20.6749C36.1269 20.2796 35.7849 19.9535 35.3784 19.7274C34.9719 19.5013 34.5145 19.3828 34.0494 19.383L28.6045 19.3641L28.225 19.9737L21.7184 30.3843L21.3591 30.9603L24.0869 35.3137C24.5902 36.1239 25.4596 36.607 26.4177 36.607H34.048C34.9887 36.607 35.8782 36.1117 36.3761 35.3164L36.6453 34.8858C36.6453 34.8858 36.656 34.875 36.6587 34.8696L40.0432 29.4531C40.3156 29.0162 40.46 28.5118 40.46 27.997C40.46 27.4822 40.3156 26.9777 40.0432 26.5409H40.0405L40.0392 26.5423ZM39.0084 28.8071L35.6225 34.2237C35.6091 34.2506 35.5902 34.2694 35.5754 34.291C35.5278 34.3443 35.4683 34.3856 35.4018 34.4118C35.3353 34.438 35.2636 34.4482 35.1924 34.4416C35.1213 34.4351 35.0526 34.412 34.992 34.3741C34.9314 34.3363 34.8805 34.2848 34.8433 34.2237L31.4588 28.8044C31.3822 28.6834 31.3233 28.5519 31.2839 28.4142C31.2251 28.2099 31.21 27.9955 31.2395 27.785C31.2689 27.5745 31.3423 27.3726 31.4548 27.1922L34.8353 21.7824L34.8433 21.769C34.9241 21.6478 35.025 21.5927 35.1125 21.5752C35.1475 21.5644 35.1784 21.5617 35.2026 21.5577H35.2403C35.3184 21.5577 35.5122 21.5819 35.6333 21.7784L39.0124 27.1882C39.3219 27.6807 39.3219 28.3146 39.0124 28.8071H39.0084ZM30.0377 13.4537C30.3089 13.0164 30.4526 12.5121 30.4526 11.9976C30.4526 11.4831 30.3089 10.9788 30.0377 10.5415L26.6573 5.13169L26.3747 4.67683C26.1285 4.28074 25.7851 3.95422 25.3771 3.72833C24.9692 3.50243 24.5102 3.38468 24.0438 3.38628H16.4136C15.4621 3.38628 14.5914 3.87074 14.0841 4.67818L0.420896 26.5476C0.14638 26.9831 0.000477353 27.4872 1.16933e-06 28.002C-0.000475014 28.5167 0.144494 29.0212 0.418204 29.4571L4.08263 35.3231C4.32805 35.7193 4.67091 36.0459 5.07848 36.2719C5.48606 36.4978 5.94474 36.6155 6.41074 36.6137H14.041C14.9992 36.6137 15.8685 36.1292 16.3718 35.3218L16.6518 34.8777V34.8723L16.6558 34.8629L19.3795 30.5068L27.4526 17.5878L30.0323 13.4564L30.0377 13.455V13.4537ZM29.2397 11.9976C29.2397 12.2762 29.1617 12.5574 29.0042 12.8064L15.6196 34.2277C15.5782 34.2941 15.5204 34.3487 15.4518 34.3864C15.3833 34.4241 15.3062 34.4436 15.228 34.443C15.1496 34.4436 15.0723 34.4241 15.0035 34.3864C14.9347 34.3487 14.8767 34.2941 14.835 34.2277L11.4532 28.8085C11.3027 28.5656 11.2229 28.2855 11.2229 27.9997C11.2229 27.7139 11.3027 27.4338 11.4532 27.1909L24.8365 5.77629C24.8774 5.70888 24.9352 5.65324 25.004 5.61479C25.0729 5.57635 25.1506 5.55641 25.2294 5.55694C25.3075 5.55694 25.5013 5.57982 25.6237 5.77764L29.0042 11.1875C29.1617 11.4364 29.2397 11.7177 29.2397 11.9976Z" fill="url(#paint0_linear_744_98)"/>
<path d="M61.9655 25.6626H54.9139L53.7835 29H48.9658L55.8021 10.1059H61.1312L67.9675 29H63.096L61.9655 25.6626ZM60.7813 22.1099L58.4397 15.1928L56.1251 22.1099H60.7813ZM74.6505 10.1059V29H70.0481V10.1059H74.6505ZM90.5257 29.1884C89.1441 29.1884 87.906 28.9641 86.8115 28.5155C85.717 28.067 84.8378 27.4031 84.1739 26.5239C83.5279 25.6446 83.187 24.586 83.1511 23.3479H88.0496C88.1214 24.0477 88.3636 24.586 88.7763 24.9628C89.189 25.3217 89.7273 25.5011 90.3912 25.5011C91.073 25.5011 91.6113 25.3486 92.006 25.0436C92.4008 24.7206 92.5982 24.281 92.5982 23.7247C92.5982 23.2582 92.4367 22.8724 92.1137 22.5674C91.8087 22.2624 91.4229 22.0112 90.9564 21.8138C90.5078 21.6164 89.8618 21.3921 89.0185 21.1409C87.7984 20.7641 86.8025 20.3873 86.031 20.0105C85.2594 19.6337 84.5955 19.0775 84.0393 18.3418C83.4831 17.6061 83.205 16.6462 83.205 15.462C83.205 13.7035 83.8419 12.3309 85.1159 11.344C86.3898 10.3392 88.0496 9.8368 90.0951 9.8368C92.1765 9.8368 93.8542 10.3392 95.1281 11.344C96.4021 12.3309 97.0839 13.7125 97.1736 15.4889H92.1944C92.1585 14.8788 91.9343 14.4033 91.5216 14.0624C91.1089 13.7035 90.5796 13.5241 89.9336 13.5241C89.3774 13.5241 88.9288 13.6766 88.5879 13.9816C88.247 14.2687 88.0765 14.6904 88.0765 15.2466C88.0765 15.8567 88.3636 16.3322 88.9378 16.6731C89.5119 17.014 90.4091 17.3819 91.6292 17.7766C92.8494 18.1893 93.8362 18.584 94.5898 18.9609C95.3614 19.3377 96.0253 19.8849 96.5815 20.6026C97.1377 21.3204 97.4159 22.2444 97.4159 23.3748C97.4159 24.4514 97.1377 25.4293 96.5815 26.3085C96.0432 27.1877 95.2537 27.8875 94.213 28.4079C93.1723 28.9282 91.9432 29.1884 90.5257 29.1884ZM107.085 29.2153C105.613 29.2153 104.285 28.9013 103.101 28.2733C101.935 27.6453 101.011 26.7481 100.329 25.5818C99.6651 24.4155 99.3331 23.0519 99.3331 21.4908C99.3331 19.9477 99.674 18.593 100.356 17.4267C101.038 16.2425 101.971 15.3364 103.155 14.7083C104.339 14.0803 105.667 13.7663 107.138 13.7663C108.61 13.7663 109.937 14.0803 111.122 14.7083C112.306 15.3364 113.239 16.2425 113.921 17.4267C114.603 18.593 114.944 19.9477 114.944 21.4908C114.944 23.0339 114.594 24.3976 113.894 25.5818C113.212 26.7481 112.27 27.6453 111.068 28.2733C109.884 28.9013 108.556 29.2153 107.085 29.2153ZM107.085 25.232C107.964 25.232 108.708 24.909 109.318 24.263C109.946 23.6171 110.26 22.693 110.26 21.4908C110.26 20.2886 109.955 19.3646 109.345 18.7186C108.753 18.0727 108.018 17.7497 107.138 17.7497C106.241 17.7497 105.497 18.0727 104.904 18.7186C104.312 19.3466 104.016 20.2707 104.016 21.4908C104.016 22.693 104.303 23.6171 104.878 24.263C105.47 24.909 106.205 25.232 107.085 25.232ZM121.988 9.08319V29H117.385V9.08319H121.988ZM140.153 13.9816V29H135.551V26.9545C135.084 27.6184 134.447 28.1567 133.64 28.5694C132.85 28.9641 131.971 29.1615 131.002 29.1615C129.854 29.1615 128.84 28.9103 127.961 28.4079C127.081 27.8875 126.4 27.1429 125.915 26.174C125.431 25.205 125.188 24.0657 125.188 22.7558V13.9816H129.764V22.1368C129.764 23.1416 130.024 23.9221 130.544 24.4783C131.065 25.0346 131.765 25.3127 132.644 25.3127C133.541 25.3127 134.25 25.0346 134.77 24.4783C135.29 23.9221 135.551 23.1416 135.551 22.1368V13.9816H140.153ZM151.829 25.0974V29H149.488C147.819 29 146.518 28.5963 145.585 27.7888C144.652 26.9635 144.185 25.6267 144.185 23.7786V17.8035H142.355V13.9816H144.185V10.3213H148.788V13.9816H151.802V17.8035H148.788V23.8324C148.788 24.281 148.896 24.6039 149.111 24.8013C149.326 24.9987 149.685 25.0974 150.187 25.0974H151.829ZM156.707 12.4206C155.9 12.4206 155.236 12.1873 154.716 11.7208C154.213 11.2364 153.962 10.6442 153.962 9.94446C153.962 9.22674 154.213 8.63461 154.716 8.16809C155.236 7.68363 155.9 7.4414 156.707 7.4414C157.497 7.4414 158.143 7.68363 158.645 8.16809C159.166 8.63461 159.426 9.22674 159.426 9.94446C159.426 10.6442 159.166 11.2364 158.645 11.7208C158.143 12.1873 157.497 12.4206 156.707 12.4206ZM158.995 13.9816V29H154.393V13.9816H158.995ZM169.167 29.2153C167.696 29.2153 166.368 28.9013 165.183 28.2733C164.017 27.6453 163.093 26.7481 162.411 25.5818C161.747 24.4155 161.415 23.0519 161.415 21.4908C161.415 19.9477 161.756 18.593 162.438 17.4267C163.12 16.2425 164.053 15.3364 165.237 14.7083C166.422 14.0803 167.749 13.7663 169.221 13.7663C170.692 13.7663 172.02 14.0803 173.204 14.7083C174.388 15.3364 175.321 16.2425 176.003 17.4267C176.685 18.593 177.026 19.9477 177.026 21.4908C177.026 23.0339 176.676 24.3976 175.976 25.5818C175.294 26.7481 174.352 27.6453 173.15 28.2733C171.966 28.9013 170.638 29.2153 169.167 29.2153ZM169.167 25.232C170.046 25.232 170.791 24.909 171.401 24.263C172.029 23.6171 172.343 22.693 172.343 21.4908C172.343 20.2886 172.038 19.3646 171.428 18.7186C170.836 18.0727 170.1 17.7497 169.221 17.7497C168.324 17.7497 167.579 18.0727 166.987 18.7186C166.395 19.3466 166.099 20.2707 166.099 21.4908C166.099 22.693 166.386 23.6171 166.96 24.263C167.552 24.909 168.288 25.232 169.167 25.232ZM188.619 13.8202C190.377 13.8202 191.777 14.3943 192.817 15.5427C193.876 16.6731 194.405 18.2342 194.405 20.2258V29H189.83V20.8449C189.83 19.8401 189.57 19.0595 189.049 18.5033C188.529 17.9471 187.829 17.6689 186.95 17.6689C186.071 17.6689 185.371 17.9471 184.85 18.5033C184.33 19.0595 184.07 19.8401 184.07 20.8449V29H179.468V13.9816H184.07V15.9733C184.536 15.3094 185.164 14.7891 185.954 14.4123C186.743 14.0175 187.632 13.8202 188.619 13.8202ZM203.713 29.2153C202.403 29.2153 201.237 28.991 200.214 28.5425C199.191 28.0939 198.384 27.4838 197.792 26.7123C197.2 25.9228 196.868 25.0436 196.796 24.0746H201.345C201.398 24.595 201.641 25.0166 202.071 25.3396C202.502 25.6626 203.031 25.8241 203.659 25.8241C204.233 25.8241 204.673 25.7164 204.978 25.5011C205.301 25.2678 205.462 24.9718 205.462 24.6129C205.462 24.1823 205.238 23.8683 204.79 23.6709C204.341 23.4556 203.614 23.2223 202.609 22.9711C201.533 22.7199 200.636 22.4598 199.918 22.1906C199.2 21.9035 198.581 21.4639 198.061 20.8718C197.541 20.2617 197.28 19.4453 197.28 18.4226C197.28 17.5613 197.514 16.7808 197.98 16.081C198.465 15.3633 199.164 14.7981 200.08 14.3854C201.013 13.9727 202.116 13.7663 203.39 13.7663C205.274 13.7663 206.754 14.2329 207.831 15.1659C208.925 16.0989 209.553 17.337 209.715 18.8801H205.462C205.391 18.3598 205.157 17.9471 204.763 17.642C204.386 17.337 203.883 17.1845 203.255 17.1845C202.717 17.1845 202.304 17.2921 202.017 17.5075C201.73 17.7048 201.587 17.983 201.587 18.3418C201.587 18.7724 201.811 19.0954 202.26 19.3107C202.726 19.5261 203.444 19.7414 204.413 19.9567C205.525 20.2438 206.431 20.5309 207.131 20.818C207.831 21.0871 208.441 21.5357 208.961 22.1637C209.5 22.7738 209.778 23.5991 209.796 24.6398C209.796 25.519 209.544 26.3085 209.042 27.0083C208.558 27.6902 207.849 28.2284 206.916 28.6232C206.001 29.0179 204.933 29.2153 203.713 29.2153ZM222.837 10.1059V21.4101C222.837 22.5405 223.115 23.4107 223.671 24.0208C224.227 24.6309 225.044 24.9359 226.12 24.9359C227.197 24.9359 228.022 24.6309 228.596 24.0208C229.171 23.4107 229.458 22.5405 229.458 21.4101V10.1059H234.06V21.3832C234.06 23.0698 233.701 24.4963 232.983 25.6626C232.266 26.8289 231.297 27.7081 230.077 28.3002C228.875 28.8923 227.529 29.1884 226.039 29.1884C224.55 29.1884 223.213 28.9013 222.029 28.3271C220.863 27.735 219.939 26.8558 219.257 25.6895C218.575 24.5053 218.234 23.0698 218.234 21.3832V10.1059H222.837ZM244.128 29.1884C242.747 29.1884 241.509 28.9641 240.414 28.5155C239.319 28.067 238.44 27.4031 237.776 26.5239C237.13 25.6446 236.789 24.586 236.754 23.3479H241.652C241.724 24.0477 241.966 24.586 242.379 24.9628C242.791 25.3217 243.33 25.5011 243.994 25.5011C244.675 25.5011 245.214 25.3486 245.609 25.0436C246.003 24.7206 246.201 24.281 246.201 23.7247C246.201 23.2582 246.039 22.8724 245.716 22.5674C245.411 22.2624 245.025 22.0112 244.559 21.8138C244.11 21.6164 243.464 21.3921 242.621 21.1409C241.401 20.7641 240.405 20.3873 239.633 20.0105C238.862 19.6337 238.198 19.0775 237.642 18.3418C237.086 17.6061 236.807 16.6462 236.807 15.462C236.807 13.7035 237.444 12.3309 238.718 11.344C239.992 10.3392 241.652 9.8368 243.698 9.8368C245.779 9.8368 247.457 10.3392 248.731 11.344C250.005 12.3309 250.686 13.7125 250.776 15.4889H245.797C245.761 14.8788 245.537 14.4033 245.124 14.0624C244.711 13.7035 244.182 13.5241 243.536 13.5241C242.98 13.5241 242.531 13.6766 242.19 13.9816C241.849 14.2687 241.679 14.6904 241.679 15.2466C241.679 15.8567 241.966 16.3322 242.54 16.6731C243.114 17.014 244.012 17.3819 245.232 17.7766C246.452 18.1893 247.439 18.584 248.192 18.9609C248.964 19.3377 249.628 19.8849 250.184 20.6026C250.74 21.3204 251.018 22.2444 251.018 23.3748C251.018 24.4514 250.74 25.4293 250.184 26.3085C249.646 27.1877 248.856 27.8875 247.816 28.4079C246.775 28.9282 245.546 29.1884 244.128 29.1884ZM265.612 25.6626H258.561L257.43 29H252.613L259.449 10.1059H264.778L271.614 29H266.743L265.612 25.6626ZM264.428 22.1099L262.087 15.1928L259.772 22.1099H264.428ZM275.848 29.2153C275.041 29.2153 274.377 28.9821 273.856 28.5155C273.354 28.0311 273.103 27.439 273.103 26.7392C273.103 26.0215 273.354 25.4204 273.856 24.9359C274.377 24.4514 275.041 24.2092 275.848 24.2092C276.638 24.2092 277.284 24.4514 277.786 24.9359C278.306 25.4204 278.567 26.0215 278.567 26.7392C278.567 27.439 278.306 28.0311 277.786 28.5155C277.284 28.9821 276.638 29.2153 275.848 29.2153Z" fill="#212121"/>
<defs>
<linearGradient id="paint0_linear_744_98" x1="20.23" y1="3.38626" x2="20.23" y2="36.6137" gradientUnits="userSpaceOnUse">
<stop stop-color="#F1A493"/>
<stop offset="1" stop-color="#E977D9"/>
</linearGradient>
</defs>
</svg>
